{
  "asset": {
    "version": "2.0",
    "generator": ""
  },
  "scenes": [
    {
      "nodes": [0]
    }
  ],
  "nodes": [
    {
      "name": "Extrude",
      "children": [1]
    },
    {
      "name": "Extrude",
      "mesh": 0
    }
  ],
  "meshes": [
    {
      "name": "Extrude",
      "primitives": [
        {
          "attributes": {
            "POSITION": 1,
            "NORMAL": 2,
            "TEXCOORD_0": 3
          },
          "indices": 0,
          "material": 0
        }
      ]
    }
  ],
  "accessors": [
    {
      "bufferView": 0,
      "type": "SCALAR",
      "componentType": 5123,
      "count": 33450,
      "byteOffset": 0,
      "min": [0],
      "max": [6388]
    },
    {
      "bufferView": 1,
      "type": "VEC3",
      "componentType": 5126,
      "count": 6389,
      "byteOffset": 0,
      "min": [-0.3238277733325958, -0.42440804839134219, -0.07900000363588333],
      "max": [0.3644808828830719, 0.41905760765075686, 0.004000000189989805]
    },
    {
      "bufferView": 1,
      "type": "VEC3",
      "componentType": 5126,
      "count": 6389,
      "byteOffset": 12,
      "min": [-0.9999903440475464, -1.0, -1.0],
      "max": [0.999993085861206, 1.0, 1.0]
    },
    {
      "bufferView": 1,
      "type": "VEC2",
      "componentType": 5126,
      "count": 6389,
      "byteOffset": 24,
      "min": [0.0, 0.0],
      "max": [1.0, 1.0]
    }
  ],
  "bufferViews": [
    {
      "buffer": 0,
      "byteOffset": 0,
      "byteLength": 66900,
      "target": 34963
    },
    {
      "buffer": 0,
      "byteOffset": 66900,
      "byteLength": 204448,
      "target": 34962,
      "byteStride": 32
    }
  ],
  "buffers": [
    {
      "uri": "data:application/octet-stream;base64,",
      "byteLength": 271348
    }
  ],
  "materials": [
    {
      "pbrMetallicRoughness": {
        "baseColorFactor": [1.0, 0.31000000000000008, 0.09999999999999998, 1.0],
        "metallicFactor": 0.3,
        "roughnessFactor": 0.6
      },
      "emissiveFactor": [0.0, 0.0, 0.0],
      "alphaMode": "OPAQUE",
      "doubleSided": true,
      "name": "Orange Plastic"
    }
  ]
}
